<svg height="511pt" viewBox="-109 0 511 511.99994" width="511pt" xmlns="http://www.w3.org/2000/svg"><path d="m113 292.5v196.59375l-24.871094 8.289062c-3.929687 1.308594-6.050781 5.554688-4.742187 9.484376 1.308593 3.933593 5.558593 6.054687 9.488281 4.746093l29.996094-10c3.0625-1.019531 5.128906-3.886719 5.128906-7.117187v-201.996094zm0 0" fill="#ffebcf"/><path d="m188 292.5v196.59375l24.871094 8.289062c3.929687 1.308594 6.050781 5.554688 4.742187 9.484376-1.308593 3.933593-5.558593 6.054687-9.484375 4.746093l-30-10c-3.0625-1.019531-5.128906-3.886719-5.128906-7.117187v-201.996094zm0 0" fill="#fcd0ac"/><path d="m30.5 185c-12.40625 0-22.5 10.09375-22.5 22.5 0 4.144531 3.359375 7.5 7.5 7.5s7.5-3.355469 7.5-7.5c0-4.136719 3.363281-7.5 7.5-7.5h120v-15zm0 0" fill="#ffc052"/><path d="m270.5 155h-15c-4.140625 0-7.5 3.359375-7.5 7.5 0 4.144531 3.359375 7.5 7.5 7.5h15c4.136719 0 7.5 3.363281 7.5 7.5s-3.363281 7.5-7.5 7.5h-120v15h120c12.40625 0 22.5-10.09375 22.5-22.5s-10.09375-22.5-22.5-22.5zm0 0" fill="#e5ac52"/><path d="m45.5 270c-4.140625 0-7.5-3.355469-7.5-7.5v-255c0-4.144531 3.359375-7.5 7.5-7.5s7.5 3.355469 7.5 7.5v255c0 4.144531-3.359375 7.5-7.5 7.5zm0 0" fill="#c53e16"/><path d="m60.5 142.5h-30v-30l15-15 15 15zm0 0" fill="#cb9851"/><path d="m60.5 112.5h-30v-30l15-15 15 15zm0 0" fill="#e5ac52"/><path d="m30.5 37.5h30v45h-30zm0 0" fill="#cb9851"/><path d="m195.5 192.5c0-11.046875-8.953125-20-20-20h-30v105h50zm0 0" fill="#e5ac52"/><path d="m165.5 192.5v85h-60v-85c0-11.050781 8.949219-20 20-20h20c11.050781 0 20 8.949219 20 20zm0 0" fill="#ffc052"/><path d="m195.5 262.5h-30l15 94.996094 15.007812-10.003906 14.992188 10.003906v-55.328125c0-15.210938-5.671875-29.089844-15-39.667969zm0 0" fill="#cb9851"/><path d="m165.5 262.5h-60c-9.328125 10.574219-15 24.457031-15 39.667969v55.328125c.011719 0 15.007812-10.003906 15.007812-10.003906l14.992188 10.003906 14.992188-10.003906 15.019531 10.003906 14.996093-10.003906 14.992188 10.003906v-55.328125c0-15.210938-5.671875-29.089844-15-39.667969zm0 0" fill="#e5ac52"/><path d="m75.5 22.5h-30v30h30c8.285156 0 15-6.714844 15-15s-6.714844-15-15-15zm0 0" fill="#5cae96"/><path d="m60.5 37.5c0-8.285156-6.714844-15-15-15h-30c-8.285156 0-15 6.714844-15 15s6.714844 15 15 15h30c8.285156 0 15-6.714844 15-15zm0 0" fill="#66dbbf"/><path d="m182.269531 97.5v31.257812c3.414063 8.078126 11.410157 13.742188 20.730469 13.742188 12.425781 0 22.5-10.074219 22.5-22.5s-10.074219-22.5-22.5-22.5zm0 0" fill="#c53e16"/><path d="m164.59375 82.046875-14.09375 60.453125c24.855469 0 45-20.148438 45-45zm0 0" fill="#fcd0ac"/><path d="m165.5 97.5c0-5.429688-.320312-10.632812-.90625-15.453125l-41.097656-20.546875c-10.925782 8.210938-17.996094 21.28125-17.996094 36 0 24.851562 20.148438 45 45 45 8.285156 0 15-20.148438 15-45zm0 0" fill="#ffebcf"/><path d="m150.5 52.5 14.898438 39.832031c9.414062 3.339844 19.542968 5.167969 30.101562 5.167969 0-24.851562-20.144531-45-45-45zm0 0" fill="#af2b12"/><path d="m150.5 52.5c-10.132812 0-19.480469 3.351562-27.003906 9.003906 10.535156 14.019532 25.066406 24.855469 41.902344 30.828125-.855469-22.417969-7.195313-39.832031-14.898438-39.832031zm0 0" fill="#c53e16"/><path d="m255.5 140c-4.140625 0-7.5-3.355469-7.5-7.5v-30c0-4.144531 3.359375-7.5 7.5-7.5 4.144531 0 7.5 3.355469 7.5 7.5v30c0 4.144531-3.355469 7.5-7.5 7.5zm0 0" fill="#a3e9d9"/><path d="m45.5 230h-15c-12.40625 0-22.5-10.09375-22.5-22.5 0-4.140625 3.359375-7.5 7.5-7.5s7.5 3.359375 7.5 7.5c0 4.136719 3.363281 7.5 7.5 7.5h15c4.140625 0 7.5 3.359375 7.5 7.5 0 4.144531-3.359375 7.5-7.5 7.5zm0 0" fill="#ffc052"/><path d="m150.5 240c-12.40625 0-22.5-10.09375-22.5-22.5v-45c0-4.140625 3.359375-7.5 7.5-7.5s7.5 3.359375 7.5 7.5v45c0 4.136719 3.363281 7.5 7.5 7.5s7.5-3.363281 7.5-7.5v-45c0-4.140625 3.359375-7.5 7.5-7.5 4.144531 0 7.5 3.359375 7.5 7.5v45c0 12.40625-10.09375 22.5-22.5 22.5zm0 0" fill="#f0651f"/></svg>