<svg height="512" viewBox="0 0 60 60" width="512" xmlns="http://www.w3.org/2000/svg"><g id="Page-1" fill="none" fill-rule="evenodd"><g id="014---Knitting" fill-rule="nonzero" transform="translate(0 -1)"><path id="Shape" d="m42.51 51.47c-8.4842596 5.2006557-19.3008426 4.6114565-27.17-1.48.22.01.44.01.66.01 3.9650552.0048644 7.9017606-.6681634 11.64-1.99 4.6481996 2.2149031 9.7214684 3.3953678 14.87 3.46z" fill="#e91e63"/><path id="Shape" d="m48.44 46.35c-1.6746916 2.0241867-3.6755192 3.7546321-5.92 5.12h-.01c-5.1485316-.0646322-10.2218004-1.2450969-14.87-3.46 2.7841128-.9727696 5.4296914-2.3039629 7.87-3.96h.01c4.0369145 1.5354312 8.320954 2.318353 12.64 2.31.0934464.0018453.1869233-.0014932.28-.01z" fill="#ad1457"/><path id="Shape" d="m51.52 41.61c-.8274701 1.7008545-1.861978 3.2929218-3.08 4.74-.0930767.0085068-.1865536.0118453-.28.01-4.319046.008353-8.6030855-.7745688-12.64-2.31 2.0978623-1.4044935 4.0330814-3.0378587 5.77-4.87 3.3401277 1.0801342 6.7609293 1.8927 10.23 2.43z" fill="#e91e63"/><path id="Shape" d="m41.29 39.18c-.23.243-.474.474-.711.71 2.6141812.715564 5.2650249 1.2897299 7.941 1.72-.8107433 1.6638162-1.8197358 3.2234734-3.005 4.645.874.064 1.755.1 2.645.1.0934464.0018453.1869233-.0014932.28-.01 1.218022-1.4470782 2.2525299-3.0391455 3.08-4.74-3.4689321-.5356662-6.8897314-1.3465595-10.23-2.425z" fill="#ad1457"/><path id="Shape" d="m53.54 35.66c-.4005456 2.0657201-1.0801032 4.0673874-2.02 5.95-3.4690707-.5373-6.8898723-1.3498658-10.23-2.43 1.6689273-1.7326743 3.1504554-3.6365385 4.42-5.68 2.5235909 1.0028782 5.149154 1.7271714 7.83 2.16z" fill="#ad1457"/><path id="Shape" d="m54 31c.0000059 1.5646672-.1540709 3.1255324-.46 4.66-2.680846-.4328286-5.3064091-1.1571218-7.83-2.16 2.7495977-4.3942084 4.4786952-9.3491321 5.06-14.5 2.1236562 3.6420017 3.2385644 7.7840756 3.23 12z" fill="#e91e63"/><path id="Shape" d="m50.77 19c-.1883024 1.6093862-.4890375 3.2036163-.9 4.771 1.1670739 3.6451386 1.4309772 7.5192676.769 11.289.953.232 1.916.441 2.9.6 1.1364405-5.7052401.1518552-11.6291087-2.769-16.66z" fill="#ad1457"/><path id="Shape" d="m50.77 19c-.5813048 5.1508679-2.3104023 10.1057916-5.06 14.5-1.2695446 2.0434615-2.7510727 3.9473257-4.42 5.68-1.7369186 1.8321413-3.6721377 3.4655065-5.77 4.87h-.01c-2.4403086 1.6560371-5.0858872 2.9872304-7.87 3.96-3.7382394 1.3218366-7.6749448 1.9948644-11.64 1.99-.22 0-.44 0-.66-.01-1.8502448-1.4165759-3.4782483-3.1018797-4.83-5 .16.01.33.01.49.01 18.1631306-.0001711 33.3079708-13.8941613 34.87-31.99 1.9544707 1.7108668 3.6104456 3.7352117 4.9 5.99z" fill="#e91e63"/><path id="Shape" d="m45.87 13.01c-.079.923-.2 1.833-.351 2.734.8416434 1.019283 1.5947123 2.1085733 2.251 3.256-1.9314079 16.8148819-15.6233344 29.8355613-32.514 30.92.109.085-.016.08.744.08 17.7821222-.0003441 32.7377575-13.3343876 34.77-31-1.2895544-2.2547883-2.9455293-4.2791332-4.9-5.99z" fill="#ad1457"/><path id="Shape" d="m45.87 13.01c-1.5620292 18.0958387-16.7068694 31.9898289-34.87 31.99-.16 0-.33 0-.49-.01-1.12993061-1.5578915-2.06049201-3.2510429-2.77-5.04 16.8988695-.8361589 30.7791522-13.6428984 32.97-30.42 1.8667174.9260352 3.6019395 2.0963012 5.16 3.48z" fill="#ad1457"/><path id="Shape" d="m40.71 9.53c-2.1908478 16.7771016-16.0711305 29.5838411-32.97 30.42-.70057133-1.7152229-1.19405698-3.5078851-1.47-5.34 1.90483362-.2856502 3.7816954-.7339559 5.61-1.34 2.2546873-.7309696 4.4265517-1.6962427 6.48-2.88 2.0652655-1.1754446 4.0023968-2.56294 5.78-4.14 1.8546386-1.631123 3.5307138-3.4546928 5-5.44 2.9197475-3.9395679 4.9745826-8.4513452 6.03-13.24 1.9234831.41162074 3.7856128 1.07042475 5.54 1.96z" fill="#e91e63"/><path id="Shape" d="m35.17 7.57c-1.0554174 4.7886548-3.1102525 9.3004321-6.03 13.24-2.8630492-3.8148406-4.9770302-8.1378129-6.23-12.74 2.2954669-.71384386 4.6861031-1.07463099 7.09-1.07 1.739218-.00377735 3.4733788.1874164 5.17.57z" fill="#ad1457"/><path id="Shape" d="m29.14 20.81c-1.4692862 1.9853072-3.1453614 3.808877-5 5.44-3.3770174-4.7099004-5.5470976-10.1763052-6.32-15.92 1.5989433-.95656637 3.3081169-1.71545285 5.09-2.26 1.2529698 4.6021871 3.3669508 8.9251594 6.23 12.74z" fill="#e91e63"/><path id="Shape" d="m24.14 26.25c-1.7776032 1.57706-3.7147345 2.9645554-5.78 4.14-3.1759297-4.7578891-5.1554129-10.2126173-5.77-15.9 1.5355726-1.6294781 3.2968223-3.0303956 5.23-4.16.7729024 5.7436948 2.9429826 11.2100996 6.32 15.92z" fill="#ad1457"/><path id="Shape" d="m18.36 30.39c-2.0534483 1.1837573-4.2253127 2.1490304-6.48 2.88-2.00477159-3.5364724-3.38179468-7.3934904-4.07-11.4 1.12477279-2.733628 2.7453526-5.2356946 4.78-7.38.6145871 5.6873827 2.5940703 11.1421109 5.77 15.9z" fill="#e91e63"/><path id="Shape" d="m11.88 33.27c-1.8283046.6060441-3.70516638 1.0543498-5.61 1.34-.65135135-4.3077455-.11902566-8.7115308 1.54-12.74.68820532 4.0065096 2.06522841 7.8635276 4.07 11.4z" fill="#ad1457"/><circle id="Oval" cx="48" cy="5" fill="#ffdc00" r="3"/><circle id="Oval" cx="56" cy="13" fill="#ffdc00" r="3"/><path id="Shape" d="m56 9c-2.209139 0-4 1.790861-4 4 .0043936.669475.1792217 1.3268011.508 1.91l-1.974 1.854c-1.7096306-2.4571117-3.8428883-4.5903694-6.3-6.3l1.856-1.972c.5831989.32877834 1.240525.50360644 1.91.508 1.8411839.0127282 3.4566274-1.22462772 3.9239464-3.00556376.467319-1.78093603-.33246-3.65204821-1.9426802-4.54497111-1.6102201-.8929229-3.6209395-.58032957-4.8840801.75929583-1.2631405 1.3396254-1.4571224 3.36523106-.4711861 4.92023904l-2.108 2.245c-10.0467928-5.82785044-22.7847709-3.96313003-30.739502 4.4999745-7.95473121 8.4631046-9.02777943 21.2920498-2.589498 30.9590255l-8.918 9.482c-.37831505.4026156-.35861558 1.0356849.044 1.414s1.03568495.3586156 1.414-.044l8.659-9.208c1.2136906 1.5336895 2.6013105 2.9213094 4.135 4.135l-9.208 8.659c-.40261558.3783151-.42231505 1.0113844-.044 1.414s1.01138442.4223151 1.414.044l9.482-8.918c10.4541158 6.9697426 24.4605445 5.0749089 32.687-4.422l4.2.361c1.1355656.0987211 1.9919196 1.074305 1.942617 2.2130869-.0493025 1.138782-.9867683 2.036704-2.126617 2.0369131-2.1364281.0022048-3.8677952 1.7335719-3.87 3.87v4.13c0 .5522847.4477153 1 1 1s1-.4477153 1-1v-4.13c.0011032-1.0327056.838294-1.8694489 1.871-1.87 2.2079727-.0048288 4.0214198-1.7458656 4.1161667-3.9518099.094747-2.2059442-1.5627394-4.0960602-3.7621667-4.2901901l-2.886-.248c5.7105827-7.9710009 6.2143473-18.5504498 1.287-27.028l2.245-2.108c1.4383644.9158862 3.2992135.8192171 4.6349329-.2407797 1.3357195-1.0599969 1.8525915-2.8502336 1.2874054-4.4590544-.5651862-1.6088208-2.0881488-2.68245428-3.7933383-2.6741659zm-8-6c.8987109-.00407558 1.6897747.59181446 1.9338813 1.45674791.2441065.86493346-.1186989 1.78647519-.8869355 2.25285525s-1.7532189.36305147-2.4079458-.25260316v-.006l-.012-.007c-.5882453-.56369224-.7757626-1.42786678-.4740519-2.18467065s1.0323358-1.25494777 1.8470519-1.25932935zm-38.781 37.847c16.2720869-1.4277438 29.5307289-13.6570391 32.266-29.761 1.1780327.6810069 2.2933956 1.4650739 3.333 2.343-1.845582 17.2983874-16.3828243 30.4550242-33.779 30.571-.6888713-1.0013564-1.29743674-2.0556459-1.82-3.153zm-2.219-9.847c.00078454-1.8079287.21527264-3.6094273.639-5.367.67709939 2.4315202 1.60718002 4.7853783 2.775 7.023-1.08124935.3126852-2.17765673.5703492-3.285.772-.08543541-.8065201-.1284946-1.6169675-.129-2.428zm5.347 1.029c-1.6858515-3.1484834-2.86689997-6.5421419-3.5-10.057.79165161-1.8420511 1.8207031-3.5727133 3.061-5.148.8096694 4.6754115 2.5171023 9.1497822 5.028 13.176-1.4773168.7890278-3.0112037 1.4672271-4.589 2.029zm23.543-23.261c1.2767431.33890948 2.521467.78861619 3.72 1.344-2.3642532 15.7280389-15.3425679 27.6991931-31.21 28.788-.41571104-1.1390738-.74006923-2.3094385-.97-3.5 13.8708671-2.5629645 24.9831905-12.9615378 28.46-26.632zm-11.58 15.941c-2.7797572-4.1733836-4.6189011-8.901246-5.39-13.856 1.0673876-.5875958 2.1799101-1.0891839 3.327-1.5 1.2318661 4.0900395 3.1355136 7.9466747 5.633 11.412-1.0859165 1.4052607-2.2795181 2.7239062-3.57 3.944zm9.625-16.365c-.9605683 3.8304847-2.5880807 7.4619225-4.808 10.728-2.1889-3.1567463-3.8664899-6.6388169-4.971-10.318 3.1919571-.84028065 6.5279085-.98014568 9.779-.41zm-16.854 3.638c.9033317 5.0340658 2.8515298 9.8229744 5.719 14.058-1.2987892 1.088753-2.6762009 2.080115-4.121 2.966-2.690329-4.2962805-4.40626-9.130038-5.027-14.161 1.0482485-1.0624082 2.1965701-2.0211848 3.429-2.863zm-4.527 33.98c17.2529661-.84391 31.5128825-13.7461775 34.073-30.829 1.182663 1.2365349 2.224378 2.6005578 3.106 4.067-2.0954287 17.0319645-16.5726333 29.821242-33.733 29.8-.1 0-.2 0-.3 0-1.1421702-.9111386-2.1955345-1.9283416-3.146-3.038zm23.112-.8c3.386854 1.2337832 6.9390978 1.954411 10.539 2.138-1.2024123 1.1937989-2.5323982 2.2518184-3.966 3.155-4.0973745-.0821168-8.1472059-.89486-11.959-2.4 1.8740845-.8095438 3.6759127-1.7770313 5.386-2.892zm12.285.192c-3.4811506-.0148664-6.939878-.5580531-10.258-1.611 1.3801991-1.041177 2.6835746-2.1804608 3.9-3.409 2.75241.8526794 5.5560099 1.5303664 8.394 2.029-.5992863 1.0490998-1.2800463 2.0495094-2.036 2.992zm-4.845-6.643c1.1022302-1.2581164 2.1156727-2.5913296 3.033-3.99 2.0147563.7482164 4.088683 1.3262399 6.2 1.728-.3386675 1.3899344-.8074011 2.7449093-1.4 4.047-2.6418162-.4501892-5.2567885-1.0457606-7.833-1.784zm-24.606 12.194c3.1021294-.2092283 6.1640116-.8199912 9.109-1.817 3.5485741 1.6450724 7.3392488 2.7070421 11.226 3.145-6.6136736 2.7578811-14.1361833 2.2666151-20.335-1.328zm34.236-16.415c-1.880064-.356263-3.7291231-.8601567-5.53-1.507 1.9228318-3.3371017 3.2931969-6.9632674 4.058-10.738 1.5955264 3.8717405 2.1044678 8.1054271 1.472 12.245zm3.264-19.49c-.546431-.0007145-1.0685518-.2259786-1.444-.623l-.007-.012h-.006c-.6439468-.6914087-.7142467-1.7398366-.1683711-2.5110262.5458756-.7711895 1.5580509-1.0534026 2.4241998-.6759115.866149.3774911 1.3484613 1.3110423 1.1551571 2.2358921-.1933042.9248497-1.0091512 1.5870708-1.9539858 1.5860456z" fill="#000"/></g></g></svg>